<?xml version="1.0" encoding="utf-8"?>
<!-- Generator: Adobe Illustrator 18.1.0, SVG Export Plug-In . SVG Version: 6.00 Build 0)  -->
<svg version="1.1" xmlns="http://www.w3.org/2000/svg" xmlns:xlink="http://www.w3.org/1999/xlink" x="0px" y="0px" width="960px"
	 height="960px" viewBox="174 -84 960 960" enable-background="new 174 -84 960 960" xml:space="preserve">
<g id="Passenger_Train_Front_View">
</g>
<g id="Horse_Lines">
	<g>
		<path d="M1108.547,94.709c-21.857-9.204-42.994-18.846-64.694-26.989c-15.261-5.727-31.727-8.302-46.86-14.293
			c-19.042-7.538-37.394-16.88-55.817-25.906c-14.75-7.227-28.659-16.494-43.937-22.185c-7.528-2.804-17.369-0.046-26.052,1.065
			c-10.39,1.33-20.771,3.135-30.955,5.572c-10.442,2.499-21.914,3.967-30.721,9.446c-32.659,20.318-64.348,42.192-96.582,63.204
			c-3.151,2.054-7.532,2.25-11.362,3.233c-15.938,4.091-31.799,10.859-47.853,11.36c-12.55,0.391-28.12-3.71-37.478-11.595
			c-22.772-19.187-42.764-41.684-63.761-62.96c-7.679-7.781-13.939-17.626-22.904-23.251c-6.531-4.098-16.425-2.915-24.841-3.908
			c-8.275-0.976-17.088-0.229-24.77-2.855c-24.809-8.482-48.592-21.818-73.981-26.089c-16.496-2.775-35.041,7.273-52.789,10.997
			c-7.71,1.618-15.709,2.003-23.605,2.553c-10.409,0.726-21.212-0.465-31.184,1.925c-14.989,3.592-29.532,9.237-44.02,14.664
			c-9.061,3.394-18.07,7.317-26.379,12.227c-9.249,5.466-17.677,12.321-28.739,20.191c-0.001-0.015-0.003-0.028-0.004-0.043
			L186.5,42.701c0,274.769,0,549.537,0,824.306c311.667,0,623.333,0,935,0c0-252.036,0-504.071,0-756.107l-12.921-16.315
			C1108.568,94.629,1108.558,94.664,1108.547,94.709z M1109.093,305.14c-52.288,8.6-104.089,16.322-155.57,25.781
			c-70.806,13.01-141.395,27.404-208.279,55.168c-14.77,6.131-29.339,13.754-42.274,23.083c-25.596,18.458-26.4,39.03-0.963,57.134
			c20.011,14.242,42.168,25.902,64.455,36.415c34.351,16.203,70.076,29.5,104.377,45.799c30.033,14.271,55.894,34.427,74.06,63.19
			c17.616,27.893,23.111,57.823,13.321,89.391c-19.118,61.644-60.738,107.837-106.45,150.822
			c-3.528,3.318-10.667,3.892-16.129,3.897c-207.11,0.201-414.221,0.098-621.331,0.412c-12.692,0.019-17.736-3.824-16.953-16.798
			c0.868-14.37,1.242-28.932-0.094-43.23c-1.528-16.34,5.226-21.186,20.779-23.542c70.558-10.692,141.391-20.519,211.113-35.398
			c36.103-7.704,71.08-23.223,104.651-39.228c18.022-8.592,33.655-24.179,47.363-39.327c16.676-18.428,15.915-38.992-2.882-55.161
			c-19.006-16.349-40.519-30.378-62.551-42.481c-37.332-20.508-76.66-37.42-113.714-58.379
			c-20.29-11.476-39.642-26.206-55.861-42.919c-25.594-26.374-22.152-52.855,7.287-75.015
			c36.737-27.653,80.296-39.807,123.787-51.124c95.549-24.861,192.999-39.464,291.098-48.798
			c107.288-10.209,214.818-17.88,322.25-26.566c5.642-0.456,11.354-0.059,18.512-0.059
			C1109.093,274.329,1109.093,289.537,1109.093,305.14z"/>
	</g>
</g>
</svg>
