<?xml version="1.0" encoding="UTF-8" standalone="no"?>
<!-- Created with Inkscape (http://www.inkscape.org/) -->

<svg
   xmlns:dc="http://purl.org/dc/elements/1.1/"
   xmlns:cc="http://creativecommons.org/ns#"
   xmlns:rdf="http://www.w3.org/1999/02/22-rdf-syntax-ns#"
   xmlns:svg="http://www.w3.org/2000/svg"
   xmlns="http://www.w3.org/2000/svg"
   xmlns:xlink="http://www.w3.org/1999/xlink"
   xmlns:sodipodi="http://sodipodi.sourceforge.net/DTD/sodipodi-0.dtd"
   xmlns:inkscape="http://www.inkscape.org/namespaces/inkscape"
   width="743.64099"
   height="495.76068"
   id="svg2"
   sodipodi:version="0.32"
   inkscape:version="0.48.4 r9939"
   version="1.0"
   sodipodi:docname="Flag-Val_d'_Aran.svg"
   inkscape:output_extension="org.inkscape.output.svg.inkscape">
  <defs
     id="defs4">
    <inkscape:perspective
       sodipodi:type="inkscape:persp3d"
       inkscape:vp_x="0 : 526.18109 : 1"
       inkscape:vp_y="0 : 1000 : 0"
       inkscape:vp_z="744.09448 : 526.18109 : 1"
       inkscape:persp3d-origin="372.04724 : 350.78739 : 1"
       id="perspective10" />
    <inkscape:perspective
       id="perspective2390"
       inkscape:persp3d-origin="372.04724 : 350.78739 : 1"
       inkscape:vp_z="744.09448 : 526.18109 : 1"
       inkscape:vp_y="0 : 1000 : 0"
       inkscape:vp_x="0 : 526.18109 : 1"
       sodipodi:type="inkscape:persp3d" />
    <linearGradient
       id="linearGradient4981">
      <stop
         style="stop-color:#403800;stop-opacity:1;"
         offset="0"
         id="stop4983" />
      <stop
         id="stop4985"
         offset="0.5"
         style="stop-color:#c8af00;stop-opacity:1;" />
      <stop
         style="stop-color:#403900;stop-opacity:1;"
         offset="1"
         id="stop4987" />
    </linearGradient>
    <linearGradient
       inkscape:collect="always"
       xlink:href="#linearGradient4476"
       id="linearGradient4989"
       gradientUnits="userSpaceOnUse"
       gradientTransform="matrix(1.139822,0,0,1.139822,68.596191,133.76794)"
       x1="133.79698"
       y1="343.1196"
       x2="416.20303"
       y2="343.1196" />
    <inkscape:perspective
       sodipodi:type="inkscape:persp3d"
       inkscape:vp_x="0 : 526.18109 : 1"
       inkscape:vp_y="0 : 1000 : 0"
       inkscape:vp_z="744.09448 : 526.18109 : 1"
       inkscape:persp3d-origin="372.04724 : 350.78739 : 1"
       id="perspective4991" />
    <linearGradient
       id="linearGradient4476">
      <stop
         style="stop-color:#403800;stop-opacity:1;"
         offset="0"
         id="stop4478" />
      <stop
         id="stop3321"
         offset="0.5"
         style="stop-color:#c8af00;stop-opacity:1;" />
      <stop
         style="stop-color:#403900;stop-opacity:1;"
         offset="1"
         id="stop4480" />
    </linearGradient>
    <linearGradient
       inkscape:collect="always"
       xlink:href="#linearGradient4476"
       id="linearGradient2929"
       gradientUnits="userSpaceOnUse"
       gradientTransform="matrix(1.139822,0,0,1.139822,68.596191,133.76794)"
       x1="133.79698"
       y1="343.1196"
       x2="416.20303"
       y2="343.1196" />
    <inkscape:perspective
       sodipodi:type="inkscape:persp3d"
       inkscape:vp_x="0 : 526.18109 : 1"
       inkscape:vp_y="0 : 1000 : 0"
       inkscape:vp_z="744.09448 : 526.18109 : 1"
       inkscape:persp3d-origin="372.04724 : 350.78739 : 1"
       id="perspective9853" />
    <inkscape:perspective
       id="perspective108"
       inkscape:persp3d-origin="275 : 325 : 1"
       inkscape:vp_z="550 : 487.5 : 1"
       inkscape:vp_y="0 : 1000 : 0"
       inkscape:vp_x="0 : 487.5 : 1"
       sodipodi:type="inkscape:persp3d" />
  </defs>
  <sodipodi:namedview
     id="base"
     pagecolor="#ffffff"
     bordercolor="#666666"
     borderopacity="1.0"
     inkscape:pageopacity="0.0"
     inkscape:pageshadow="2"
     inkscape:zoom="1.0811668"
     inkscape:cx="371.8205"
     inkscape:cy="240.0378"
     inkscape:document-units="px"
     inkscape:current-layer="layer1"
     showgrid="false"
     inkscape:window-width="1366"
     inkscape:window-height="749"
     inkscape:window-x="-4"
     inkscape:window-y="-4"
     inkscape:window-maximized="0" />
  <metadata
     id="metadata7">
    <rdf:RDF>
      <cc:Work
         rdf:about="">
        <dc:format>image/svg+xml</dc:format>
        <dc:type
           rdf:resource="http://purl.org/dc/dcmitype/StillImage" />
      </cc:Work>
    </rdf:RDF>
  </metadata>
  <g
     inkscape:label="Ebene 1"
     inkscape:groupmode="layer"
     id="layer1"
     transform="translate(-0.8571434,-1.5050441)">
    <rect
       style="opacity:1;fill:#800000;fill-opacity:1;fill-rule:evenodd;stroke:none;stroke-width:1;stroke-linecap:round;stroke-linejoin:round;stroke-miterlimit:4;stroke-dasharray:none;stroke-dashoffset:0;stroke-opacity:1"
       id="rect3461"
       width="743.64105"
       height="495.76068"
       x="0.85714018"
       y="1.5050504" />
    <g
       id="g2546"
       transform="matrix(0.1186771,0,0,0.1256923,330.54727,188.73709)">
      <g
         style="display:inline"
         transform="translate(18.571278,-7.7561678)"
         inkscape:label="Timbre"
         id="layer3" />
      <g
         style="display:inline"
         transform="translate(18.571278,-7.7561678)"
         id="g2549"
         inkscape:label="Escudo" />
      <g
         transform="translate(75,-84.396514)"
         style="display:inline"
         inkscape:label="Piezas"
         id="layer4">
        <g
           transform="translate(873.00016,-55.320157)"
           inkscape:label="Piezas"
           id="g5818" />
        <g
           transform="translate(873.00016,-55.320157)"
           inkscape:label="Muebles"
           id="g5820" />
        <g
           transform="translate(873.00016,-55.320157)"
           inkscape:label="Ornamentos"
           id="g5822" />
      </g>
      <g
         transform="translate(75,-84.396514)"
         style="display:inline"
         inkscape:label="Muebles"
         id="layer5">
        <g
           style="display:inline"
           transform="translate(-582.73933,640.16742)"
           id="g5438"
           inkscape:label="Escudo" />
        <g
           transform="translate(-526.31061,563.52708)"
           style="display:inline"
           inkscape:label="Piezas"
           id="g5440" />
        <g
           transform="translate(-526.31061,563.52708)"
           inkscape:label="Ornamento"
           id="g5559" />
        <g
           transform="translate(-526.31061,563.52708)"
           style="display:inline"
           inkscape:label="Borde 3px"
           id="g5561" />
        <g
           transform="translate(-1463.6678,-157.68994)"
           id="g5299" />
        <g
           transform="translate(-2598.0451,11.3847)"
           id="g9393" />
      </g>
      <g
         transform="translate(75,-84.396514)"
         style="display:inline"
         inkscape:label="Ornamentos"
         id="layer6" />
      <g
         transform="translate(75,-84.396514)"
         style="display:inline"
         inkscape:label="Borde 3px"
         id="layer2">
        <g
           transform="matrix(0.9591081,0,0,0.9591081,12.34174,18.785367)"
           id="g2527">
          <path
             sodipodi:nodetypes="ccccccccc"
             id="path5237"
             d="M 268.37465,122.08727 C 261.89753,113.61708 261.68105,108.58116 254.01943,106.20095 L 253.65135,142.39762 C 253.67739,144.70175 247.0649,134.91656 242.2408,129.5277 L 246.65779,199.70901 C 223.11772,185.23921 234.00131,184.52433 210.21764,174.57244 C 248.16465,239.44535 192.98464,183.62105 184.45188,206.34507 L 264.32574,224.44342 L 268.37465,122.08727 z"
             style="fill:#eac102;fill-opacity:1;fill-rule:evenodd;stroke:#000000;stroke-width:1.04263532px;stroke-linecap:butt;stroke-linejoin:miter;stroke-opacity:1" />
          <path
             style="fill:#eac102;fill-opacity:1;fill-rule:evenodd;stroke:#000000;stroke-width:1.04263532px;stroke-linecap:butt;stroke-linejoin:miter;stroke-opacity:1"
             d="M 291.77707,122.08728 C 298.25418,113.61708 298.47067,108.58116 306.13229,106.20095 L 306.50037,142.39762 C 306.47433,144.70175 313.08681,134.91656 317.91092,129.5277 L 313.49393,199.70902 C 337.034,185.23922 326.1504,184.52434 349.93407,174.57244 C 311.98707,239.44535 367.16708,183.62106 375.69983,206.34508 L 295.82598,224.44342 L 291.77707,122.08728 z"
             id="path5235"
             sodipodi:nodetypes="ccccccccc" />
          <path
             id="path4583"
             d="M 11.491567,293.35067 C 29.413846,327.34881 45.685368,339.73082 54.87116,342.7632 C 64.056912,345.79559 66.095222,341.01691 65.826203,341.80982 L 84.776877,347.09792 C 80.695129,359.12769 64.853902,366.07706 47.881767,360.47422 C 30.909614,354.87141 12.744087,338.23892 -6.3581546,302.0024 L 11.491567,293.35067 z"
             style="fill:#eac102;fill-opacity:1;fill-rule:evenodd;stroke:#000000;stroke-width:1.04263532;stroke-linecap:butt;stroke-linejoin:miter;marker:none;marker-start:none;marker-mid:none;marker-end:none;stroke-miterlimit:4;stroke-dasharray:none;stroke-dashoffset:0;stroke-opacity:1;visibility:visible;display:inline;overflow:visible;enable-background:accumulate" />
          <path
             style="fill:#eac102;fill-opacity:1;fill-rule:evenodd;stroke:#000000;stroke-width:1.04263532px;stroke-linecap:butt;stroke-linejoin:miter;stroke-opacity:1"
             d="M 632.46288,191.44964 C 622.66901,189.4262 612.1037,188.88412 602.98502,202.66705 L 598.10884,186.77962 C 583.1011,187.63495 581.70864,205.41275 567.72558,214.36818 L 544.60135,216.44897 C 548.07204,237.73349 546.6528,245.50177 545.3383,254.01424 L 503.08669,266.01426 C 519.49406,275.64595 534.00565,286.11764 539.44273,301.2317 L 632.46288,191.44964 z"
             id="path4581"
             sodipodi:nodetypes="ccccccccc" />
          <path
             style="fill:#eac102;fill-opacity:1;fill-rule:evenodd;stroke:#000000;stroke-width:1.04263532;stroke-linecap:butt;stroke-linejoin:miter;marker:none;marker-start:none;marker-mid:none;marker-end:none;stroke-miterlimit:4;stroke-dasharray:none;stroke-dashoffset:0;stroke-opacity:1;visibility:visible;display:inline;overflow:visible;enable-background:accumulate"
             d="M 547.30263,293.35067 C 529.38035,327.34881 513.10883,339.73082 503.92304,342.7632 C 494.73729,345.79559 492.69898,341.01691 492.968,341.80982 L 474.01732,347.09792 C 478.09907,359.12769 493.9403,366.07706 510.91243,360.47422 C 527.88458,354.87141 546.05011,338.23892 565.15235,302.0024 L 547.30263,293.35067 z"
             id="path4461" />
          <path
             style="fill:#eac102;fill-opacity:1;fill-rule:evenodd;stroke:#000000;stroke-width:1.04263532;stroke-linecap:butt;stroke-linejoin:miter;stroke-miterlimit:4;stroke-dasharray:none;stroke-opacity:1"
             d="M 269.35763,237.14452 C 267.71468,274.72847 239.85588,302.76606 203.01653,310.61319 C 166.17717,318.46031 120.78027,305.94084 85.015866,258.49674 L 67.745248,266.62946 C 72.08813,285.0466 72.869827,300.11876 71.217647,310.46089 C 69.565468,320.80301 65.919629,325.4491 62.536649,327.06139 C 59.153669,328.67369 53.255263,328.70428 43.468915,322.79704 C 33.682568,316.8898 21.151129,305.23764 7.2828582,287.03742 L -8.2211005,298.85576 C 6.6207971,318.33374 20.407983,331.63628 33.417233,339.48893 C 46.426483,347.34158 59.77298,349.97631 70.913051,344.66707 C 82.053122,339.35783 88.227784,327.56126 90.468142,313.53731 C 91.395139,307.73458 91.556249,301.25364 91.290553,294.3782 C 127.47641,327.64128 170.45795,337.47914 207.06766,329.68092 C 239.21613,322.833 266.64663,302.32323 280.07942,273.6961 C 293.51222,302.32323 320.94272,322.833 353.09119,329.68092 C 389.70089,337.47914 432.68243,327.64128 468.8683,294.3782 C 468.60259,301.25364 468.76371,307.73458 469.69071,313.53731 C 471.93106,327.56126 478.10573,339.35783 489.2458,344.66707 C 500.38586,349.97631 513.73237,347.34158 526.74162,339.48893 C 539.75086,331.63628 553.53806,318.33374 568.37995,298.85576 L 552.87599,287.03742 C 539.00771,305.23764 526.47628,316.8898 516.68994,322.79704 C 506.90358,328.70428 501.00518,328.67369 497.6222,327.06139 C 494.23921,325.4491 490.59338,320.80301 488.9412,310.46089 C 487.28901,300.11876 488.07072,285.0466 492.4136,266.62946 L 475.14298,258.49674 C 439.37857,305.94084 393.98168,318.46031 357.14232,310.61319 C 320.30296,302.76606 292.44417,274.72847 290.80122,237.14452 L 280.07942,237.60142 L 269.35763,237.14452 z"
             id="path3640" />
          <g
             id="g4543"
             transform="matrix(0.9747086,0,0,1.0910356,-42.966999,71.656612)">
            <path
               sodipodi:nodetypes="ccssccscscscscscscscccsccssscscsccscscccscscccccscscccscsccscscsssccscccscscscscscscsccsssc"
               id="path2929"
               d="M 331.15211,164.20445 C 337.43264,169.39654 346.95997,190.58067 352.71024,183.01391 C 354.66383,180.96165 355.05193,171.80483 360.13113,167.80288 C 365.21043,163.80095 363.66403,163.69269 373.04113,159.58814 C 382.41813,155.48359 411.70973,157.9452 411.70973,157.94519 L 409.37913,153.85393 C 409.37913,153.85393 414.04233,153.8528 417.16803,152.21097 C 420.29373,150.56917 422.25843,146.44455 422.25843,146.44455 C 422.25843,146.44455 421.88143,145.62859 419.92793,141.9345 C 417.97433,138.24041 411.70973,136.20028 411.70973,136.20028 C 411.70973,136.20028 417.18713,135.3699 422.65713,134.13854 C 428.12703,132.90719 430.47663,123.86206 430.47663,123.86206 C 430.47663,123.86206 430.07693,122.22632 428.51413,120.99496 C 426.95123,119.76359 419.13063,120.18959 419.13063,120.18959 C 419.13063,120.18959 420.69663,118.95484 423.82233,115.26075 C 426.94803,111.56665 429.67933,107.46479 429.67933,107.46479 C 429.67933,107.46479 429.69303,107.44812 427.34883,106.62721 C 425.00453,105.8063 423.82233,106.24063 423.82233,106.24063 C 423.82233,106.24063 426.16873,103.75065 426.95013,101.69837 C 427.73163,99.646086 425.78493,92.259471 425.78493,92.259471 L 420.69453,95.964154 L 419.13063,92.259471 C 419.13063,92.259471 415.99263,93.098169 412.47633,94.739991 C 408.95993,96.381813 405.05533,100.47421 405.05533,100.47421 L 403.49143,94.321209 C 403.49143,94.321209 388.65433,104.18115 384.35653,107.46479 C 380.05873,110.74843 371.07753,120.59057 369.51463,118.12784 C 367.95183,115.66512 372.64573,108.27285 377.33423,100.47421 C 382.02273,92.675563 391.01083,85.301095 391.01083,85.301095 C 391.01083,85.301095 391.01763,83.665347 389.84553,82.433982 C 388.67343,81.202617 384.75513,79.534671 384.75513,79.534671 C 384.75513,79.534671 387.50023,77.092427 388.28163,74.219243 C 389.06303,71.346057 387.88293,66.004502 387.88293,66.004502 L 385.52173,66.809865 C 385.52173,66.809865 384.73923,62.724687 383.95783,59.851502 C 383.17643,56.978317 380.83003,54.92265 380.83003,54.92265 C 380.83003,54.92265 379.66373,54.92265 378.10083,54.92265 C 376.53803,54.92265 374.60503,57.370966 374.60503,57.370966 L 370.67993,52.442124 L 362.49233,66.423288 C 362.49233,66.423288 364.05623,58.218444 364.05623,49.188435 C 364.05623,40.158426 358.96593,31.534795 358.96593,31.534795 C 358.96593,31.534795 356.62523,33.180004 353.10883,36.463642 C 349.59249,39.747278 347.61985,46.289123 347.61985,46.289123 C 347.61985,46.289123 345.2951,38.102074 342.56012,31.534795 C 340.82434,28.722886 334.24171,16.724745 331.42873,17.708621 C 328.17959,17.646057 322.32058,27.955837 320.29734,31.534795 C 317.56236,38.102074 315.20695,46.289123 315.20695,46.289123 C 315.20695,46.289123 313.26497,39.747278 309.74858,36.463642 C 306.23219,33.180004 303.86091,31.534795 303.86091,31.534795 C 303.86091,31.534795 298.80118,40.158426 298.80118,49.188435 C 298.80118,58.218444 300.3651,66.423288 300.3651,66.423288 L 292.14688,52.442124 L 288.25243,57.370966 C 288.25243,57.370966 286.28879,54.92265 284.72595,54.92265 C 283.16311,54.92265 281.99677,54.92265 281.99677,54.92265 C 281.99677,54.92265 279.65036,56.978317 278.86894,59.851502 C 278.08753,62.724687 277.30502,66.809865 277.30502,66.809865 L 274.97448,66.004502 C 274.97448,66.004502 273.79443,71.346057 274.57584,74.219243 C 275.35726,77.092427 278.10231,79.534671 278.10231,79.534671 C 278.10231,79.534671 274.18405,81.202617 273.01192,82.433982 C 271.8398,83.665347 271.84666,85.301095 271.84666,85.301095 C 271.84666,85.301095 280.83472,92.675563 285.52324,100.47421 C 290.21176,108.27285 294.87499,115.66512 293.31215,118.12784 C 291.74932,120.59057 282.7681,110.74843 278.47029,107.46479 C 274.17248,104.18115 259.33534,94.321209 259.33534,94.321209 L 257.77142,100.47421 C 257.77142,100.47421 253.86689,96.381813 250.3505,94.739991 C 246.83411,93.098169 243.69619,92.259471 243.69619,92.259471 L 242.13228,95.964154 L 237.07256,92.259471 C 237.07256,92.259471 235.0952,99.646086 235.87662,101.69837 C 236.65803,103.75065 239.00445,106.24063 239.00445,106.24063 C 239.00445,106.24063 237.8529,105.8063 235.50864,106.62721 C 233.16438,107.44812 233.14744,107.46479 233.14744,107.46479 C 233.14745,107.46479 235.87877,111.56665 239.00445,115.26075 C 242.13013,118.95484 243.69619,120.18959 243.69619,120.18959 C 243.6962,120.18959 235.87555,119.76359 234.31271,120.99496 C 232.74987,122.22632 232.38081,123.86206 232.38081,123.86206 C 232.38081,123.86206 234.73045,132.90719 240.20038,134.13854 C 245.67032,135.3699 251.11712,136.20028 251.11712,136.20028 C 251.11712,136.20028 244.88312,138.24041 242.92957,141.9345 C 240.97602,145.62859 240.56836,146.44455 240.56836,146.44455 C 240.56837,146.44455 242.53307,150.56917 245.65875,152.21097 C 248.78443,153.8528 253.47833,153.85393 253.47833,153.85393 L 251.11712,157.94519 C 251.11712,157.9452 280.4393,155.48359 289.81634,159.58814 C 299.19338,163.69269 297.6164,163.80095 302.69564,167.80288 C 307.77487,171.80483 308.8305,180.68718 310.11656,183.01391 C 315.04866,191.93708 324.99904,169.39618 331.19511,164.20445"
               style="fill:#eac102;fill-opacity:1;fill-rule:evenodd;stroke:#000000;stroke-width:1.01105678px;stroke-linecap:butt;stroke-linejoin:miter;stroke-opacity:1" />
            <g
               id="g4534">
              <path
                 style="fill:none;fill-rule:evenodd;stroke:#000000;stroke-width:0.50552845;stroke-linecap:round;stroke-linejoin:round;stroke-miterlimit:4;stroke-dasharray:none;stroke-opacity:1"
                 d="M 331.42872,29.536309 C 331.42872,71.065717 331.42872,112.59513 331.42872,154.12453"
                 id="path2979" />
              <path
                 style="fill:none;fill-rule:evenodd;stroke:#000000;stroke-width:0.50552845;stroke-linecap:round;stroke-linejoin:round;stroke-miterlimit:4;stroke-dasharray:none;stroke-opacity:1"
                 d="M 287.77777,72.254982 C 293.85639,85.798011 300.12177,99.801592 311.08091,110.17257 C 319.27794,119.30736 327.99167,129.00508 330.31825,141.48481 L 330.62073,142.51755 L 330.93808,143.60108"
                 id="path2981" />
              <path
                 style="fill:none;fill-rule:evenodd;stroke:#000000;stroke-width:0.50552845;stroke-linecap:round;stroke-linejoin:round;stroke-miterlimit:4;stroke-dasharray:none;stroke-opacity:1"
                 d="M 375.07962,72.254982 C 369.00106,85.798037 362.73563,99.801588 351.7765,110.17257 C 343.57949,119.30737 334.86579,129.00509 332.53919,141.48481 L 332.23671,142.51755 L 331.91936,143.60108"
                 id="path2983" />
              <path
                 style="fill:none;fill-rule:evenodd;stroke:#000000;stroke-width:0.50552845;stroke-linecap:round;stroke-linejoin:round;stroke-miterlimit:4;stroke-dasharray:none;stroke-opacity:1"
                 d="M 309.35791,55.940891 C 312.63066,64.146993 317.20557,71.775203 323.554,77.962952 C 327.1543,81.979573 329.92111,86.54718 330.93808,91.902986"
                 id="path3957" />
              <path
                 style="fill:none;fill-rule:evenodd;stroke:#000000;stroke-width:0.50552845;stroke-linecap:round;stroke-linejoin:round;stroke-miterlimit:4;stroke-dasharray:none;stroke-opacity:1"
                 d="M 353.49951,55.940891 C 350.22679,64.147001 345.65187,71.775209 339.30344,77.962952 C 335.70314,81.97957 332.93635,86.547186 331.91936,91.902986"
                 id="path3959" />
              <path
                 style="fill:none;fill-rule:evenodd;stroke:#000000;stroke-width:0.50552845;stroke-linecap:round;stroke-linejoin:round;stroke-miterlimit:4;stroke-dasharray:none;stroke-opacity:1"
                 d="M 258.32434,118.38608 C 270.31142,126.48175 282.74183,134.87381 297.22518,137.54233 C 308.75994,140.7065 321.08755,144.09202 329.34402,153.36504 L 330.12192,154.07192 L 330.93808,154.81357"
                 id="path3971" />
              <path
                 style="fill:none;fill-rule:evenodd;stroke:#000000;stroke-width:0.50552845;stroke-linecap:round;stroke-linejoin:round;stroke-miterlimit:4;stroke-dasharray:none;stroke-opacity:1"
                 d="M 404.53311,118.38608 C 392.54602,126.48173 380.11561,134.87382 365.63227,137.54233 C 354.0975,140.7065 341.76989,144.09202 333.51342,153.36504 L 332.73552,154.07192 L 331.91936,154.81357"
                 id="path3973" />
            </g>
          </g>
          <path
             style="fill:#eac102;fill-rule:evenodd;stroke:#000000;stroke-width:1.04263532px;stroke-linecap:butt;stroke-linejoin:miter;stroke-opacity:1"
             d="M 279.863,327.07893 C 209.6329,327.77917 138.59571,327.84444 69.622771,341.89167 C 54.230794,346.52983 32.225383,349.11982 26.447577,365.54861 C 24.552158,379.27071 41.955048,385.08632 52.825637,388.85752 C 104.61116,403.69863 159.32957,404.95507 212.9857,407.27517 C 296.46215,408.87384 380.47661,409.52281 463.33414,398.44031 C 485.97037,394.26562 510.89564,391.68906 529.51004,377.62428 C 540.62476,367.22993 528.32173,352.69579 516.03482,349.70629 C 473.8848,334.26553 427.91206,332.60864 383.33208,329.46492 C 348.87824,327.66985 314.36448,327.10173 279.863,327.07893 z"
             id="path9052" />
          <path
             style="fill:#eac102;fill-opacity:1;fill-rule:evenodd;stroke:#000000;stroke-width:1.04263532px;stroke-linecap:butt;stroke-linejoin:miter;stroke-opacity:1"
             d="M 280.0796,343.94683 C 241.80016,343.94683 209.51789,344.65865 182.30969,345.89611 C 176.86786,346.1436 171.61455,346.41925 166.57037,346.70524 C 106.06773,350.13754 73.625957,356.20524 56.239992,361.74784 C 54.790981,362.20982 53.41694,362.65584 52.16948,363.10866 C 45.952497,365.36793 42.129046,367.53093 39.802863,369.28753 C 39.345391,369.6331 38.951408,369.96501 38.601093,370.28056 C 38.237751,370.60785 37.934403,370.90883 37.670688,371.20003 C 36.116084,372.91598 36.15877,373.95845 36.158783,373.95845 L 49.378268,419.5276 L 92.603271,419.5276 L 467.55595,419.5276 L 510.78101,419.5276 L 524.00044,373.95845 C 524.00044,373.95845 524.04311,372.91598 522.48847,371.20003 C 522.22485,370.90883 521.92141,370.60785 521.55806,370.28056 C 519.43103,368.35868 515.45251,365.82065 507.9898,363.10866 C 507.97913,363.10482 507.96152,363.1125 507.95097,363.10866 C 491.7354,357.22321 459.13455,350.42362 393.58885,346.70524 C 393.57644,346.70454 393.56243,346.70595 393.55015,346.70524 C 388.50599,346.41925 383.29114,346.1436 377.84952,345.89611 C 350.64042,344.65863 318.36125,343.94683 280.0796,343.94683 z"
             id="path9054" />
          <g
             id="g9200"
             transform="matrix(1.1432961,0,0,1.0846714,-1244.0436,103.27073)">
            <path
               style="fill:#eac102;fill-rule:evenodd;stroke:#000000;stroke-width:0.93627614px;stroke-linecap:butt;stroke-linejoin:miter;stroke-opacity:1"
               d="M 1146.9818,293.41513 C 1146.9818,293.41513 1187.1956,272.9797 1333.0953,272.9797 C 1478.5116,272.9797 1519.2087,293.41513 1519.2087,293.41513 C 1519.2087,293.41513 1485.1951,313.85057 1333.0953,313.85057 C 1180.5118,313.85057 1146.9818,293.41513 1146.9818,293.41513 z"
               id="path9202"
               sodipodi:nodetypes="czczc" />
            <g
               id="g9204"
               transform="translate(181.95199,-177.54891)">
              <path
                 d="M 1103.7725,494.66239 L 1103.7725,447.38113"
                 style="font-size:12px;fill:none;stroke:#000000;stroke-width:0.48694003"
                 id="path9206" />
              <path
                 d="M 1095.2202,494.66239 L 1095.2202,447.38113"
                 style="font-size:12px;fill:none;stroke:#000000;stroke-width:0.71688569"
                 id="path9208" />
              <path
                 d="M 1087.1469,494.66239 L 1087.1469,447.38113"
                 style="font-size:12px;fill:none;stroke:#000000;stroke-width:0.96035796"
                 id="path9210" />
              <path
                 d="M 1079.1436,494.66239 L 1079.1436,447.38113"
                 style="font-size:12px;fill:none;stroke:#000000;stroke-width:1.20382965"
                 id="path9212" />
              <path
                 d="M 1072.0123,494.66239 L 1072.0123,447.38113"
                 style="font-size:12px;fill:none;stroke:#000000;stroke-width:1.44729781"
                 id="path9214" />
              <path
                 d="M 1058.4116,492.11312 L 1058.2232,449.07937 M 1064.8594,492.67927 L 1064.8594,447.666"
                 style="font-size:12px;fill:none;stroke:#000000;stroke-width:1.69076979"
                 id="path9216" />
              <path
                 d="M 1045.8549,490.17809 L 1045.8549,450.52974 M 1052.2167,491.31025 L 1052.0283,449.11637"
                 style="font-size:12px;fill:none;stroke:#000000;stroke-width:1.92071593"
                 id="path9218" />
              <path
                 d="M 1029.0088,487.91377 L 1029.0088,453.079 M 1034.5362,488.47985 L 1034.5362,451.94677 M 1040.2306,489.61201 L 1040.2306,451.6619"
                 style="font-size:12px;fill:none;stroke:#000000;stroke-width:2.16418719"
                 id="path9220" />
              <path
                 d="M 1023.1045,487.62889 L 1023.1045,453.92996"
                 style="font-size:12px;fill:none;stroke:#000000;stroke-width:2.40765929"
                 id="path9222" />
              <path
                 d="M 1017.5986,485.93058 L 1017.5986,454.49604"
                 style="font-size:12px;fill:none;stroke:#000000;stroke-width:2.65112782"
                 id="path9224" />
              <path
                 d="M 1011.6944,485.07956 L 1011.6944,455.9094"
                 style="font-size:12px;fill:none;stroke:#000000;stroke-width:2.89459968"
                 id="path9226" />
              <path
                 d="M 999.60603,482.53403 L 999.41755,459.3097 M 1005.8008,483.66627 L 1005.8008,457.61139"
                 style="font-size:12px;fill:none;stroke:#000000;stroke-width:3.12454557"
                 id="path9228" />
              <path
                 d="M 993.41113,480.55084 L 993.41113,460.15691"
                 style="font-size:12px;fill:none;stroke:#000000;stroke-width:3.30038643"
                 id="path9230" />
              <path
                 d="M 987.73833,478.89702 L 987.73833,461.91433"
                 style="font-size:12px;fill:none;stroke:#000000;stroke-width:3.54385519"
                 id="path9232" />
              <path
                 d="M 981.54344,476.6327 L 981.54344,463.33144"
                 style="font-size:12px;fill:none;stroke:#000000;stroke-width:3.77380013"
                 id="path9234" />
              <path
                 d="M 975.17634,475.50054 L 975.17634,465.59583"
                 style="font-size:12px;fill:none;stroke:#000000;stroke-width:4.00376225"
                 id="path9236" />
              <path
                 d="M 968.43748,473.23838 L 968.43748,468.42508"
                 style="font-size:12px;fill:none;stroke:#000000;stroke-width:4.72063112"
                 id="path9238" />
              <path
                 d="M 1137.7985,492.11312 L 1137.7985,448.79823 M 1123.3098,493.53022 L 1123.4981,447.666 M 1112.7499,494.0963 L 1112.7499,447.38113"
                 style="font-size:12px;fill:none;stroke:#000000;stroke-width:0.24347077"
                 id="path9240" />
              <path
                 id="path9242"
                 style="font-size:12px;fill:none;stroke:#000000;stroke-width:0.48694003"
                 d="M 1198.5142,494.66239 L 1198.5142,447.38113" />
              <path
                 id="path9244"
                 style="font-size:12px;fill:none;stroke:#000000;stroke-width:0.71688569"
                 d="M 1207.0664,494.66239 L 1207.0664,447.38113" />
              <path
                 id="path9246"
                 style="font-size:12px;fill:none;stroke:#000000;stroke-width:0.96035796"
                 d="M 1215.1397,494.66239 L 1215.1397,447.38113" />
              <path
                 id="path9248"
                 style="font-size:12px;fill:none;stroke:#000000;stroke-width:1.20382965"
                 d="M 1223.143,494.66239 L 1223.143,447.38113" />
              <path
                 id="path9250"
                 style="font-size:12px;fill:none;stroke:#000000;stroke-width:1.44729781"
                 d="M 1230.2743,494.66239 L 1230.2743,447.38113" />
              <path
                 id="path9252"
                 style="font-size:12px;fill:none;stroke:#000000;stroke-width:1.69076979"
                 d="M 1243.8751,492.11312 L 1244.0635,449.07937 M 1237.4272,492.67927 L 1237.4272,447.666" />
              <path
                 id="path9254"
                 style="font-size:12px;fill:none;stroke:#000000;stroke-width:1.92071593"
                 d="M 1256.4317,490.17809 L 1256.4317,450.52974 M 1250.07,491.31025 L 1250.2583,449.11637" />
              <path
                 id="path9256"
                 style="font-size:12px;fill:none;stroke:#000000;stroke-width:2.16418719"
                 d="M 1273.2779,487.91377 L 1273.2779,453.079 M 1267.7504,488.47985 L 1267.7504,451.94677 M 1262.056,489.61201 L 1262.056,451.6619" />
              <path
                 id="path9258"
                 style="font-size:12px;fill:none;stroke:#000000;stroke-width:2.40765929"
                 d="M 1279.1822,487.62889 L 1279.1822,453.92996" />
              <path
                 id="path9260"
                 style="font-size:12px;fill:none;stroke:#000000;stroke-width:2.65112782"
                 d="M 1284.6881,485.93058 L 1284.6881,454.49604" />
              <path
                 id="path9262"
                 style="font-size:12px;fill:none;stroke:#000000;stroke-width:2.89459968"
                 d="M 1290.5923,485.07956 L 1290.5923,455.9094" />
              <path
                 id="path9264"
                 style="font-size:12px;fill:none;stroke:#000000;stroke-width:3.12454557"
                 d="M 1302.6806,482.53403 L 1302.8691,459.3097 M 1296.4858,483.66627 L 1296.4858,457.61139" />
              <path
                 id="path9266"
                 style="font-size:12px;fill:none;stroke:#000000;stroke-width:3.30038643"
                 d="M 1308.8755,480.55084 L 1308.8755,460.15691" />
              <path
                 id="path9268"
                 style="font-size:12px;fill:none;stroke:#000000;stroke-width:3.54385519"
                 d="M 1314.5483,478.89702 L 1314.5483,461.91433" />
              <path
                 id="path9270"
                 style="font-size:12px;fill:none;stroke:#000000;stroke-width:3.77380013"
                 d="M 1320.7432,476.6327 L 1320.7432,463.33144" />
              <path
                 id="path9272"
                 style="font-size:12px;fill:none;stroke:#000000;stroke-width:4.00376225"
                 d="M 1327.1103,475.50054 L 1327.1103,465.59583" />
              <path
                 id="path9274"
                 style="font-size:12px;fill:none;stroke:#000000;stroke-width:4.72063112"
                 d="M 1333.8491,473.23838 L 1333.8491,468.42508" />
              <path
                 id="path9276"
                 style="font-size:12px;fill:none;stroke:#000000;stroke-width:0.24347077"
                 d="M 1164.4881,492.11312 L 1164.4881,448.79823 M 1178.9769,493.53022 L 1178.7886,447.666 M 1189.5367,494.0963 L 1189.5367,447.38113" />
            </g>
            <path
               style="fill:#eac102;fill-rule:evenodd;stroke:#000000;stroke-width:0.93627614px;stroke-linecap:butt;stroke-linejoin:miter;stroke-opacity:1"
               d="M 1332.9288,258.95109 C 1276.3163,259.54605 1219.0593,259.60934 1163.4601,271.54484 C 1151.0525,275.48574 1133.3051,277.67952 1128.6476,291.63859 C 1127.1196,303.29783 1141.1347,308.24681 1149.8976,311.45109 C 1191.6419,324.06113 1235.7702,325.13602 1279.0225,327.10734 C 1346.313,328.46567 1414.0122,328.99258 1480.8038,319.57609 C 1499.0509,316.02897 1519.1424,313.83902 1534.1475,301.88859 C 1543.1071,293.05682 1533.2083,280.70993 1523.3038,278.16984 C 1489.3266,265.0503 1452.271,263.65346 1416.3351,260.98234 C 1388.5618,259.45713 1360.7405,258.97046 1332.9288,258.95109 z M 1333.0851,272.98234 C 1478.5013,272.98236 1519.2101,293.41984 1519.2101,293.41984 C 1519.21,293.41983 1485.1848,313.85734 1333.0851,313.85734 C 1180.5015,313.85734 1146.9913,293.41984 1146.9913,293.41984 C 1146.9913,293.41983 1187.1853,272.98234 1333.0851,272.98234 z"
               id="path9278" />
          </g>
          <g
             id="g5253"
             transform="matrix(0.9747086,0,0,1.0351043,-42.966999,78.323167)">
            <path
               style="fill:#eac102;fill-opacity:1;fill-rule:evenodd;stroke:#000000;stroke-width:1.03801322px;stroke-linecap:butt;stroke-linejoin:miter;stroke-opacity:1"
               d="M 596.55411,218.23292 C 595.87423,215.91422 596.84886,213.17424 594.57866,208.17361 C 592.30838,203.17297 593.51286,203.67279 588.08479,196.97134 C 582.65672,190.26991 559.93554,181.09324 559.93554,181.09323 L 563.21907,178.83493 C 563.21907,178.83493 559.73562,177.07017 558.02928,174.62547 C 556.32305,172.18079 556.40824,168.24833 556.40824,168.24833 C 556.40824,168.24833 557.00721,167.76114 559.85164,165.65148 C 562.69617,163.54183 568.1248,164.34946 568.1248,164.34946 C 568.1248,164.34946 564.3522,161.6294 560.74779,158.61645 C 557.14328,155.6035 558.8083,147.75875 558.8083,147.75875 C 558.8083,147.75875 559.73666,146.63099 561.3628,146.27176 C 562.98903,145.91254 568.63466,149.2116 568.63466,149.21161 C 568.63466,149.21161 567.93962,147.65894 567.00643,143.6327 C 566.07325,139.60645 565.58419,135.4125 565.58419,135.4125 C 565.58419,135.4125 565.57441,135.39545 567.62723,135.64741 C 569.68003,135.89936 570.41528,136.67661 570.41528,136.67661 C 570.41528,136.67661 569.59511,133.88991 569.78704,132.01348 C 569.97889,130.13706 574.20296,125.17492 574.20287,125.17492 L 576.59045,129.95165 L 579.15212,127.66642 C 579.15212,127.66641 581.17812,129.50477 583.17497,132.09688 C 585.17191,134.68902 586.522,139.3246 586.522,139.3246 L 590.00729,135.16183 C 590.00729,135.16183 597.32953,148.36802 599.28916,152.52024 C 601.24879,156.67246 604.24056,167.63731 606.33058,166.32915 C 608.4207,165.021 607.71407,157.55647 607.16458,149.77739 C 606.61509,141.99831 602.69057,132.91572 602.69057,132.91572 C 602.69057,132.91572 603.31445,131.66218 604.65006,131.15555 C 605.98568,130.6489 609.52285,130.85374 609.52285,130.85374 C 609.52285,130.85373 608.39917,127.9321 608.90027,125.42306 C 609.40139,122.91402 612.30347,119.23451 612.30347,119.23451 L 613.73849,120.76201 C 613.73849,120.76201 615.84844,117.90306 617.51188,115.98373 C 619.17531,114.06441 621.7089,113.35225 621.7089,113.35224 C 621.7089,113.35224 622.58244,113.79566 623.74476,114.38539 C 624.9072,114.97512 627.77163,118.04265 627.77163,118.04265 L 632.53343,115.71521 L 633.35345,129.5874 C 644.18627,120.50455 643.36575,110.5723 657.83706,104.24486 C 657.83706,104.24486 662.45997,108.16189 663.83839,112.01925 C 665.2168,115.8766 664.00575,123.01531 664.00575,123.01531 C 664.00576,123.0153 669.49165,112.41036 683.58447,109.81568 C 696.80087,107.38233 702.52802,115.42391 704.24951,117.24357 C 673.75354,120.89132 664.51859,148.23447 647.65064,179.5558 C 646.52797,181.54844 633.37856,207.53915 631.44547,209.6998 C 629.51247,211.86046 627.2283,214.06445 624.75651,216.27395 C 622.28481,218.48346 619.62175,220.68443 616.88288,222.82362 C 604.4384,230.9457 594.89558,234.12659 596.55411,218.23292 z"
               id="path4138"
               sodipodi:nodetypes="cssccscscscssscscscccsccssscscsccsssccccsczccsscc" />
            <path
               style="fill:none;fill-rule:evenodd;stroke:#000000;stroke-width:0.51900667;stroke-linecap:round;stroke-linejoin:round;stroke-miterlimit:4;stroke-dasharray:none;stroke-opacity:1"
               d="M 622.45308,133.16103 C 617.18512,165.58157 640.38981,176.56459 640.19284,195.98748"
               id="path4140"
               sodipodi:nodetypes="cc" />
            <path
               id="path4142"
               d="M 652.65411,117.20464 C 640.57557,146.21076 653.60124,149.00695 649.8811,169.93684"
               style="fill:none;fill-rule:evenodd;stroke:#000000;stroke-width:0.51900673;stroke-linecap:round;stroke-linejoin:round;stroke-miterlimit:4;stroke-dasharray:none;stroke-opacity:1"
               sodipodi:nodetypes="cc" />
            <path
               sodipodi:nodetypes="cc"
               id="path4144"
               d="M 580.05371,155.21231 C 598.91204,214.79028 622.02519,185.40365 634.96039,199.9746"
               style="fill:none;fill-rule:evenodd;stroke:#000000;stroke-width:0.51900673;stroke-linecap:round;stroke-linejoin:round;stroke-miterlimit:4;stroke-dasharray:none;stroke-opacity:1" />
            <g
               transform="matrix(0.7210286,0.3318212,-0.3893724,0.6497901,-580.30873,-950.75217)"
               id="g9000">
              <path
                 id="path9002"
                 d="M 2069.0625,730.6875 C 2069.2863,730.69541 2069.4934,730.78125 2069.7188,730.78125 C 2082.4774,730.78125 2092.8126,718.0152 2092.8125,702.28125 C 2092.8125,686.5473 2082.4773,673.78126 2069.7188,673.78125 C 2069.4934,673.78125 2069.2863,673.86709 2069.0625,673.875 L 2069.0625,730.6875 z"
                 style="opacity:1;fill:#e3e4e5;fill-opacity:1;fill-rule:nonzero;stroke:#000000;stroke-width:1.34262419;stroke-linecap:butt;stroke-linejoin:miter;marker:none;marker-start:none;marker-mid:none;marker-end:none;stroke-miterlimit:4;stroke-dasharray:none;stroke-dashoffset:0;stroke-opacity:1;visibility:visible;display:inline;overflow:visible;enable-background:accumulate" />
              <path
                 sodipodi:nodetypes="ccccc"
                 id="path9004"
                 d="M 2066.2861,668.73151 L 2073.2364,668.73151 L 2073.2364,735.26088 L 2066.2861,735.26088 C 2063.8276,709.57117 2063.4237,685.13585 2066.2861,668.73151 z"
                 style="fill:#eac102;fill-opacity:1;fill-rule:nonzero;stroke:#000000;stroke-width:1.34262419;stroke-linecap:butt;stroke-linejoin:miter;marker:none;marker-start:none;marker-mid:none;marker-end:none;stroke-miterlimit:4;stroke-dashoffset:0;stroke-opacity:1;visibility:visible;display:inline;overflow:visible;enable-background:accumulate" />
            </g>
          </g>
          <g
             id="g9046"
             transform="matrix(0.7042727,0,0,0.7219437,-1804.4652,169.27659)">
            <path
               transform="matrix(1.3114524,0,0,1.2234043,-925.15005,-19.090606)"
               d="m 2989.9221,81.516876 c 0,15.217756 -12.3364,27.554184 -27.5542,27.554184 -15.2177,0 -27.5542,-12.336428 -27.5542,-27.554184 0,-15.217755 12.3365,-27.554184 27.5542,-27.554184 15.2178,0 27.5542,12.336429 27.5542,27.554184 z"
               sodipodi:ry="27.554184"
               sodipodi:rx="27.554184"
               sodipodi:cy="81.516876"
               sodipodi:cx="2962.3679"
               id="path9048"
               style="fill:#eac102;fill-opacity:1;fill-rule:evenodd;stroke:#000000;stroke-width:1.15438092;stroke-linecap:round;stroke-linejoin:round;marker:none;marker-start:none;marker-mid:none;marker-end:none;stroke-miterlimit:4;stroke-dasharray:none;stroke-dashoffset:0;stroke-opacity:1;visibility:visible;display:inline;overflow:visible;enable-background:accumulate"
               sodipodi:type="arc" />
            <path
               sodipodi:type="arc"
               style="fill:#e3e4e5;fill-opacity:1;fill-rule:evenodd;stroke:#000000;stroke-width:1.45230699;stroke-linecap:round;stroke-linejoin:round;marker:none;marker-start:none;marker-mid:none;marker-end:none;stroke-miterlimit:4;stroke-dasharray:none;stroke-dashoffset:0;stroke-opacity:1;visibility:visible;display:inline;overflow:visible;enable-background:accumulate"
               id="path9050"
               sodipodi:cx="2962.3679"
               sodipodi:cy="81.516876"
               sodipodi:rx="27.554184"
               sodipodi:ry="27.554184"
               d="m 2989.9221,81.516876 c 0,15.217756 -12.3364,27.554184 -27.5542,27.554184 -15.2177,0 -27.5542,-12.336428 -27.5542,-27.554184 0,-15.217755 12.3365,-27.554184 27.5542,-27.554184 15.2178,0 27.5542,12.336429 27.5542,27.554184 z"
               transform="matrix(1.0425532,0,0,0.972312,-128.57176,1.3776492)" />
          </g>
          <path
             sodipodi:nodetypes="ccccccccc"
             id="path2509"
             d="M -74.322987,191.44964 C -64.529117,189.4262 -53.963807,188.88412 -44.845127,202.66705 L -39.968947,186.77962 C -24.961207,187.63495 -23.568747,205.41275 -9.585687,214.36818 L 13.538543,216.44897 C 10.067853,237.73349 11.487093,245.50177 12.801593,254.01424 L 55.053203,266.01426 C 38.645833,275.64595 24.134243,286.11764 18.697163,301.2317 L -74.322987,191.44964 z"
             style="fill:#eac102;fill-opacity:1;fill-rule:evenodd;stroke:#000000;stroke-width:1.04263532px;stroke-linecap:butt;stroke-linejoin:miter;stroke-opacity:1" />
          <g
             transform="matrix(-0.9747086,0,0,1.0351043,601.10692,78.323167)"
             id="g2511">
            <path
               sodipodi:nodetypes="cssccscscscssscscscccsccssscscsccsssccccsczccsscc"
               id="path2513"
               d="M 596.55411,218.23292 C 595.87423,215.91422 596.84886,213.17424 594.57866,208.17361 C 592.30838,203.17297 593.51286,203.67279 588.08479,196.97134 C 582.65672,190.26991 559.93554,181.09324 559.93554,181.09323 L 563.21907,178.83493 C 563.21907,178.83493 559.73562,177.07017 558.02928,174.62547 C 556.32305,172.18079 556.40824,168.24833 556.40824,168.24833 C 556.40824,168.24833 557.00721,167.76114 559.85164,165.65148 C 562.69617,163.54183 568.1248,164.34946 568.1248,164.34946 C 568.1248,164.34946 564.3522,161.6294 560.74779,158.61645 C 557.14328,155.6035 558.8083,147.75875 558.8083,147.75875 C 558.8083,147.75875 559.73666,146.63099 561.3628,146.27176 C 562.98903,145.91254 568.63466,149.2116 568.63466,149.21161 C 568.63466,149.21161 567.93962,147.65894 567.00643,143.6327 C 566.07325,139.60645 565.58419,135.4125 565.58419,135.4125 C 565.58419,135.4125 565.57441,135.39545 567.62723,135.64741 C 569.68003,135.89936 570.41528,136.67661 570.41528,136.67661 C 570.41528,136.67661 569.59511,133.88991 569.78704,132.01348 C 569.97889,130.13706 574.20296,125.17492 574.20287,125.17492 L 576.59045,129.95165 L 579.15212,127.66642 C 579.15212,127.66641 581.17812,129.50477 583.17497,132.09688 C 585.17191,134.68902 586.522,139.3246 586.522,139.3246 L 590.00729,135.16183 C 590.00729,135.16183 597.32953,148.36802 599.28916,152.52024 C 601.24879,156.67246 604.24056,167.63731 606.33058,166.32915 C 608.4207,165.021 607.71407,157.55647 607.16458,149.77739 C 606.61509,141.99831 602.69057,132.91572 602.69057,132.91572 C 602.69057,132.91572 603.31445,131.66218 604.65006,131.15555 C 605.98568,130.6489 609.52285,130.85374 609.52285,130.85374 C 609.52285,130.85373 608.39917,127.9321 608.90027,125.42306 C 609.40139,122.91402 612.30347,119.23451 612.30347,119.23451 L 613.73849,120.76201 C 613.73849,120.76201 615.84844,117.90306 617.51188,115.98373 C 619.17531,114.06441 621.7089,113.35225 621.7089,113.35224 C 621.7089,113.35224 622.58244,113.79566 623.74476,114.38539 C 624.9072,114.97512 627.77163,118.04265 627.77163,118.04265 L 632.53343,115.71521 L 633.35345,129.5874 C 644.18627,120.50455 643.36575,110.5723 657.83706,104.24486 C 657.83706,104.24486 662.45997,108.16189 663.83839,112.01925 C 665.2168,115.8766 664.00575,123.01531 664.00575,123.01531 C 664.00576,123.0153 669.49165,112.41036 683.58447,109.81568 C 696.80087,107.38233 702.52802,115.42391 704.24951,117.24357 C 673.75354,120.89132 664.51859,148.23447 647.65064,179.5558 C 646.52797,181.54844 633.37856,207.53915 631.44547,209.6998 C 629.51247,211.86046 627.2283,214.06445 624.75651,216.27395 C 622.28481,218.48346 619.62175,220.68443 616.88288,222.82362 C 604.4384,230.9457 594.89558,234.12659 596.55411,218.23292 z"
               style="fill:#eac102;fill-opacity:1;fill-rule:evenodd;stroke:#000000;stroke-width:1.03801322px;stroke-linecap:butt;stroke-linejoin:miter;stroke-opacity:1" />
            <path
               sodipodi:nodetypes="cc"
               id="path2515"
               d="M 622.45308,133.16103 C 617.18512,165.58157 640.38981,176.56459 640.19284,195.98748"
               style="fill:none;fill-rule:evenodd;stroke:#000000;stroke-width:0.51900667;stroke-linecap:round;stroke-linejoin:round;stroke-miterlimit:4;stroke-dasharray:none;stroke-opacity:1" />
            <path
               sodipodi:nodetypes="cc"
               style="fill:none;fill-rule:evenodd;stroke:#000000;stroke-width:0.51900673;stroke-linecap:round;stroke-linejoin:round;stroke-miterlimit:4;stroke-dasharray:none;stroke-opacity:1"
               d="M 652.65411,117.20464 C 640.57557,146.21076 653.60124,149.00695 649.8811,169.93684"
               id="path2517" />
            <path
               style="fill:none;fill-rule:evenodd;stroke:#000000;stroke-width:0.51900673;stroke-linecap:round;stroke-linejoin:round;stroke-miterlimit:4;stroke-dasharray:none;stroke-opacity:1"
               d="M 580.05371,155.21231 C 598.91204,214.79028 622.02519,185.40365 634.96039,199.9746"
               id="path2519"
               sodipodi:nodetypes="cc" />
            <g
               id="g2521"
               transform="matrix(0.7210286,0.3318212,-0.3893724,0.6497901,-580.30873,-950.75217)">
              <path
                 style="opacity:1;fill:#e3e4e5;fill-opacity:1;fill-rule:nonzero;stroke:#000000;stroke-width:1.34262419;stroke-linecap:butt;stroke-linejoin:miter;marker:none;marker-start:none;marker-mid:none;marker-end:none;stroke-miterlimit:4;stroke-dasharray:none;stroke-dashoffset:0;stroke-opacity:1;visibility:visible;display:inline;overflow:visible;enable-background:accumulate"
                 d="M 2069.0625,730.6875 C 2069.2863,730.69541 2069.4934,730.78125 2069.7188,730.78125 C 2082.4774,730.78125 2092.8126,718.0152 2092.8125,702.28125 C 2092.8125,686.5473 2082.4773,673.78126 2069.7188,673.78125 C 2069.4934,673.78125 2069.2863,673.86709 2069.0625,673.875 L 2069.0625,730.6875 z"
                 id="path2523" />
              <path
                 style="fill:#eac102;fill-opacity:1;fill-rule:nonzero;stroke:#000000;stroke-width:1.34262419;stroke-linecap:butt;stroke-linejoin:miter;marker:none;marker-start:none;marker-mid:none;marker-end:none;stroke-miterlimit:4;stroke-dashoffset:0;stroke-opacity:1;visibility:visible;display:inline;overflow:visible;enable-background:accumulate"
                 d="M 2066.2861,668.73151 L 2073.2364,668.73151 L 2073.2364,735.26088 L 2066.2861,735.26088 C 2063.8276,709.57117 2063.4237,685.13585 2066.2861,668.73151 z"
                 id="path2525"
                 sodipodi:nodetypes="ccccc" />
            </g>
          </g>
          <g
             id="g5296"
             transform="matrix(0.9747086,0,0,0.9747086,-42.849267,92.186515)">
            <g
               id="g5278">
              <path
                 transform="matrix(0.6727992,0.188431,-0.1798032,0.6419935,-1331.9841,-1334.8884)"
                 d="m 3198.0512,1390.3806 c 0,16.2719 -13.191,29.4628 -29.4628,29.4628 -16.2719,0 -29.4628,-13.1909 -29.4628,-29.4628 0,-16.2718 13.1909,-29.4628 29.4628,-29.4628 16.2718,0 29.4628,13.191 29.4628,29.4628 z"
                 sodipodi:ry="29.462782"
                 sodipodi:rx="29.462782"
                 sodipodi:cy="1390.3806"
                 sodipodi:cx="3168.5884"
                 id="path9012"
                 style="fill:#e3e4e5;fill-opacity:1;fill-rule:evenodd;stroke:#000000;stroke-width:1.56729853;stroke-linecap:round;stroke-linejoin:round;marker:none;marker-start:none;marker-mid:none;marker-end:none;stroke-miterlimit:4;stroke-dasharray:none;stroke-dashoffset:0;stroke-opacity:1;visibility:visible;display:inline;overflow:visible;enable-background:accumulate"
                 sodipodi:type="arc" />
              <g
                 id="g4435"
                 transform="matrix(1.3416968,0,0,1.3416968,-182.39718,-64.736521)">
                <path
                   style="fill:#eac102;fill-rule:evenodd;stroke:#000000;stroke-width:0.79726595;stroke-linecap:butt;stroke-linejoin:miter;stroke-miterlimit:4;stroke-dasharray:none;stroke-opacity:1"
                   d="M 530.79421,166.83425 C 537.31175,171.46946 544.60401,174.45562 553.70276,176.28545 C 551.83114,181.03317 547.60598,177.71061 547.14954,182.087 C 546.6931,186.46339 527.99117,179.72058 530.97292,175.7941 C 533.95466,171.86769 528.50944,171.43794 530.79421,166.83425 z"
                   id="path9014"
                   sodipodi:nodetypes="cczzc" />
                <path
                   sodipodi:nodetypes="cc"
                   id="path9160"
                   d="M 547.82029,179.78478 C 542.57148,178.91252 536.66607,176.7543 532.31415,173.6357"
                   style="fill:none;fill-rule:evenodd;stroke:#000000;stroke-width:0.39863297;stroke-linecap:butt;stroke-linejoin:miter;stroke-miterlimit:4;stroke-dasharray:none;stroke-opacity:1" />
              </g>
            </g>
            <g
               transform="matrix(-1,0,0,1,662.61587,0)"
               id="g5286">
              <path
                 sodipodi:type="arc"
                 style="fill:#e3e4e5;fill-opacity:1;fill-rule:evenodd;stroke:#000000;stroke-width:1.56729853;stroke-linecap:round;stroke-linejoin:round;marker:none;marker-start:none;marker-mid:none;marker-end:none;stroke-miterlimit:4;stroke-dasharray:none;stroke-dashoffset:0;stroke-opacity:1;visibility:visible;display:inline;overflow:visible;enable-background:accumulate"
                 id="path5288"
                 sodipodi:cx="3168.5884"
                 sodipodi:cy="1390.3806"
                 sodipodi:rx="29.462782"
                 sodipodi:ry="29.462782"
                 d="m 3198.0512,1390.3806 c 0,16.2719 -13.191,29.4628 -29.4628,29.4628 -16.2719,0 -29.4628,-13.1909 -29.4628,-29.4628 0,-16.2718 13.1909,-29.4628 29.4628,-29.4628 16.2718,0 29.4628,13.191 29.4628,29.4628 z"
                 transform="matrix(0.6727992,0.188431,-0.1798032,0.6419935,-1331.9841,-1334.8884)" />
              <g
                 transform="matrix(1.3416968,0,0,1.3416968,-182.39718,-64.736521)"
                 id="g5290">
                <path
                   sodipodi:nodetypes="cczzc"
                   id="path5292"
                   d="M 530.79421,166.83425 C 537.31175,171.46946 544.60401,174.45562 553.70276,176.28545 C 551.83114,181.03317 547.60598,177.71061 547.14954,182.087 C 546.6931,186.46339 527.99117,179.72058 530.97292,175.7941 C 533.95466,171.86769 528.50944,171.43794 530.79421,166.83425 z"
                   style="fill:#eac102;fill-rule:evenodd;stroke:#000000;stroke-width:0.79726595;stroke-linecap:butt;stroke-linejoin:miter;stroke-miterlimit:4;stroke-dasharray:none;stroke-opacity:1" />
                <path
                   style="fill:none;fill-rule:evenodd;stroke:#000000;stroke-width:0.39863297;stroke-linecap:butt;stroke-linejoin:miter;stroke-miterlimit:4;stroke-dasharray:none;stroke-opacity:1"
                   d="M 547.82029,179.78478 C 542.57148,178.91252 536.66607,176.7543 532.31415,173.6357"
                   id="path5294"
                   sodipodi:nodetypes="cc" />
              </g>
            </g>
          </g>
        </g>
        <path
           id="path2433"
           d="M 529.01804,711.87815 C 446.385,711.87815 363.74036,711.87815 281.11179,711.87815 C 197.6081,711.87815 114.11084,711.87815 30.611792,711.87815 C 30.664885,737.9605 30.61179,764.04598 30.768042,790.12815 C 34.614932,898.49227 117.54274,997.49302 223.45554,1020.3782 C 242.3283,1024.976 261.62394,1027.0554 280.89304,1026.8782 C 361.66474,1026.135 441.77154,985.02687 486.42429,916.7219 C 519.54648,869.40791 531.74924,810.8744 529.01804,753.87815 C 529.01804,739.87825 529.01804,725.87795 529.01804,711.87815 z"
           style="fill:#eac102;fill-opacity:1;fill-rule:evenodd;stroke:#000000;stroke-width:1;stroke-linecap:butt;stroke-linejoin:miter;marker:none;marker-start:none;marker-mid:none;marker-end:none;stroke-miterlimit:4;stroke-dasharray:none;stroke-dashoffset:0;stroke-opacity:1;visibility:visible;display:inline;overflow:visible;enable-background:accumulate" />
        <path
           id="path5214"
           d="M 30.71875,427.87815 C 30.878902,522.54725 30.682303,617.21502 30.875,711.87815 C 114.37405,711.87815 197.87131,711.87815 281.375,711.87815 C 364.00357,711.87815 446.64821,711.87815 529.28125,711.87815 C 529.28124,617.21281 529.28125,522.54413 529.28125,427.87815 C 446.57526,427.87817 363.86221,427.87815 281.15625,427.87815 C 197.66906,427.87817 114.206,427.87815 30.71875,427.87815 z"
           style="fill:#e3e4e5;fill-opacity:1;fill-rule:evenodd;stroke:#000000;stroke-width:1;stroke-linecap:butt;stroke-linejoin:miter;marker:none;marker-start:none;marker-mid:none;marker-end:none;stroke-miterlimit:4;stroke-dasharray:none;stroke-dashoffset:0;stroke-opacity:1;visibility:visible;display:inline;overflow:visible;enable-background:accumulate" />
        <path
           id="path2460"
           d="M 85.5625,711.87815 L 85.5625,932.94065 C 101.42697,952.73141 120.19474,970.11259 141.125,984.37815 L 141.125,711.87815 L 85.5625,711.87815 z M 196.65625,711.87815 L 196.65625,1012.5656 C 205.45061,1015.6474 214.38671,1018.3955 223.5625,1020.3781 C 233.02938,1022.6845 242.59532,1024.3374 252.21875,1025.4094 L 252.21875,711.87815 L 196.65625,711.87815 z M 307.78125,711.87815 L 307.78125,1025.0656 C 326.71623,1022.8152 345.37039,1018.3863 363.34375,1011.9719 L 363.34375,711.87815 L 307.78125,711.87815 z M 418.875,711.87815 L 418.875,984.2219 C 439.87411,970.27721 458.71707,953.17384 474.4375,933.31565 L 474.4375,711.87815 L 418.875,711.87815 z"
           style="fill:#ed1c24;fill-opacity:1;fill-rule:evenodd;stroke:#000000;stroke-width:1;stroke-linecap:butt;stroke-linejoin:miter;marker:none;marker-start:none;marker-mid:none;marker-end:none;stroke-miterlimit:4;stroke-dasharray:none;stroke-dashoffset:0;stroke-opacity:1;visibility:visible;display:inline;overflow:visible;enable-background:accumulate" />
        <g
           style="stroke:#646464;stroke-opacity:1;display:inline"
           transform="translate(5.1562682,8.7595519)"
           id="g5069">
          <path
             d="M 508.38983,551.84966 C 508.69821,572.05222 491.75845,575.63008 485.02099,575.43983 C 478.35586,575.25163 476.93509,576.1675 469.41158,572.43682 C 461.88806,568.70611 461.68428,566.74965 454.92695,560.51706 C 448.18942,554.30272 438.18834,552.93728 438.02551,552.13977 C 438.12429,551.22177 448.15961,549.88924 454.81284,543.61712 C 461.48559,537.3266 461.66955,536.34616 469.14223,532.55076 C 476.61493,528.75537 478.04138,528.68123 484.70359,528.43552 C 491.43808,528.18714 508.08014,531.45158 508.38983,551.84966 z"
             style="fill:#000000;fill-opacity:1;fill-rule:evenodd;stroke:#646464;stroke-width:0.99999994;stroke-linecap:butt;stroke-linejoin:miter;stroke-miterlimit:4;stroke-dasharray:none;stroke-opacity:1"
             id="path22648" />
          <path
             d="M 111.0706,652.53121 L 134.35496,652.43255 L 134.36357,608.35991 L 117.09791,608.27928 L 117.10074,593.83037 L 134.36639,593.911 L 134.37021,574.34621 L 147.07628,574.40555 L 147.07245,593.97035 L 164.3381,594.05097 L 164.33528,608.49989 L 147.06963,608.41926 L 147.06102,652.49189 L 170.34529,652.80804 L 170.34981,629.68287 L 183.05587,629.7422 L 183.05135,652.86737 L 204.7246,652.9686 L 204.73326,608.68856 L 184.39748,608.59358 L 184.4003,594.14468 L 204.73608,594.23965 L 204.74435,551.92992 L 76.74143,551.33211 L 76.733221,593.33787 L 94.363083,593.4202 L 94.360189,608.24065 L 76.730321,608.15833 L 76.721688,652.37079 L 98.364549,652.47187 L 98.369065,629.3467 L 111.07513,629.40603 L 111.0706,652.53121 z"
             style="fill:#000000;fill-opacity:1;stroke:#646464;stroke-width:0.99999994;stroke-miterlimit:4;stroke-dasharray:none;stroke-opacity:1"
             id="path22650" />
          <path
             d="M 433.28298,529.42823 L 433.28075,540.8007 L 433.27801,554.83481 L 433.27578,566.24185 L 389.29093,566.03643 L 389.29316,554.62939 L 73.921425,553.15651 L 73.924166,539.1224 L 389.2959,540.59529 L 389.29812,529.22282 L 433.28298,529.42823 z"
             style="fill:#000000;fill-opacity:1;stroke:#646464;stroke-width:0.99999994;stroke-miterlimit:4;stroke-dasharray:none;stroke-opacity:1"
             id="path22652" />
          <path
             d="M 42.800558,542.00794 C 40.580207,543.74046 41.01421,549.69393 42.798809,550.98117 C 44.677006,552.33593 48.262846,554.04379 58.167039,556.43691 C 67.91408,558.79203 76.609661,559.146 76.609661,559.146 L 76.614734,533.19262 C 76.614734,533.19262 67.393085,533.52918 58.171012,536.07455 C 48.948939,538.61992 44.852226,540.40705 42.800558,542.00794 z"
             style="fill:#000000;fill-opacity:1;stroke:#646464;stroke-width:0.99999994;stroke-miterlimit:4;stroke-dasharray:none;stroke-opacity:1"
             id="path22654" />
          <rect
             width="5.3131709"
             height="19.224216"
             x="-204.67329"
             y="536.4834"
             transform="matrix(-0.9999891,-4.670249e-3,-1.9536938e-4,1,0,0)"
             style="fill:#000000;fill-opacity:1;stroke:#646464;stroke-width:1.00000513;stroke-miterlimit:4;stroke-dasharray:none;stroke-opacity:1"
             id="rect22656" />
          <rect
             width="5.3131709"
             height="19.224216"
             x="-81.987358"
             y="536.4834"
             transform="matrix(-0.9999891,-4.670249e-3,-1.9536938e-4,1,0,0)"
             style="fill:#000000;fill-opacity:1;stroke:#646464;stroke-width:1.00000513;stroke-miterlimit:4;stroke-dasharray:none;stroke-opacity:1"
             id="rect22658" />
          <rect
             width="5.3131709"
             height="19.224216"
             x="-122.88267"
             y="536.4834"
             transform="matrix(-0.9999891,-4.670249e-3,-1.9536938e-4,1,0,0)"
             style="fill:#000000;fill-opacity:1;stroke:#646464;stroke-width:1.00000513;stroke-miterlimit:4;stroke-dasharray:none;stroke-opacity:1"
             id="rect22660" />
          <rect
             width="5.3131709"
             height="19.224216"
             x="-163.77798"
             y="536.4834"
             transform="matrix(-0.9999891,-4.670249e-3,-1.9536938e-4,1,0,0)"
             style="fill:#000000;fill-opacity:1;stroke:#646464;stroke-width:1.00000513;stroke-miterlimit:4;stroke-dasharray:none;stroke-opacity:1"
             id="rect22662" />
          <path
             d="M 406.44397,487.49779 C 394.45836,501.00057 393.04738,514.32623 395.72276,524.02143 C 398.3432,533.51749 415.4702,542.12088 422.65879,534.94405 C 429.83577,527.77883 428.26629,521.74241 421.84913,516.21927 C 415.59847,510.83944 408.8421,519.19054 408.8421,519.19054 C 408.8421,519.19054 408.9813,511.08319 414.21222,505.23402 C 419.44313,499.38487 423.46022,496.00911 430.15516,492.91549 C 436.59449,489.93998 449.21484,490.02847 449.21484,490.02847 C 449.21484,490.02847 445.48002,496.52322 444.86294,501.05257 C 444.24585,505.58193 447.36218,507.41679 447.36218,507.41679 C 447.36218,507.41679 457.61618,496.48256 465.41561,496.74289 C 473.21504,497.00323 478.5704,501.3665 481.54111,509.07166 C 484.51182,516.77682 477.34443,529.92641 477.34443,529.92641 C 477.34443,529.92641 471.3956,519.86738 465.90811,522.05914 C 460.33453,524.28529 457.93755,526.72653 459.1728,534.52439 C 460.38575,542.1816 470.57892,548.47064 477.40879,548.49782 C 484.08862,548.52441 489.24501,546.39504 493.11403,539.22338 C 497.00779,532.00584 500.28576,513.23841 495.49833,501.52191 C 490.74381,489.88593 480.73562,478.47808 466.43998,473.08362 C 459.33578,470.40285 448.61231,467.7346 436.88721,470.32087 C 425.16211,472.90716 412.43539,480.74796 406.44397,487.49779 z"
             style="fill:#000000;fill-opacity:1;fill-rule:evenodd;stroke:#646464;stroke-width:0.99999994;stroke-linecap:butt;stroke-linejoin:miter;stroke-miterlimit:4;stroke-dasharray:none;stroke-opacity:1"
             id="path22664" />
          <path
             d="M 484.20293,613.32906 C 496.18853,599.82628 497.59952,586.50061 494.92414,576.80542 C 492.3037,567.30936 475.1767,558.70596 467.98811,565.88279 C 460.81113,573.04801 462.38061,579.08444 468.79777,584.60757 C 475.04843,589.98741 481.8048,581.6363 481.8048,581.6363 C 481.8048,581.6363 481.6656,589.74366 476.43468,595.59282 C 471.20377,601.44198 467.18668,604.81774 460.49174,607.91136 C 454.05241,610.88687 441.43206,610.79837 441.43206,610.79837 C 441.43206,610.79837 445.16688,604.30362 445.78396,599.77428 C 446.40105,595.24492 443.28472,593.41006 443.28472,593.41006 C 443.28472,593.41006 433.03072,604.34429 425.23129,604.08395 C 417.43186,603.82361 412.0765,599.46035 409.10579,591.75519 C 406.13508,584.05002 413.30247,570.90044 413.30247,570.90044 C 413.30247,570.90044 419.2513,580.95946 424.73879,578.7677 C 430.31237,576.54156 432.70935,574.10032 431.4741,566.30245 C 430.26115,558.64524 420.06798,552.35621 413.23811,552.32902 C 406.55828,552.30244 401.40189,554.43181 397.53287,561.60346 C 393.63911,568.821 390.36114,587.58843 395.14857,599.30493 C 399.90309,610.94091 409.91128,622.34876 424.20692,627.74323 C 431.31112,630.424 442.03459,633.09225 453.75969,630.50597 C 465.48479,627.91969 478.21151,620.07888 484.20293,613.32906 z"
             style="fill:#000000;fill-opacity:1;fill-rule:evenodd;stroke:#646464;stroke-width:0.99999994;stroke-linecap:butt;stroke-linejoin:miter;stroke-miterlimit:4;stroke-dasharray:none;stroke-opacity:1"
             id="path22666" />
        </g>
        <path
           style="fill:none;fill-opacity:1;fill-rule:evenodd;stroke:#000000;stroke-width:3;stroke-linecap:butt;stroke-linejoin:miter;marker:none;marker-start:none;marker-mid:none;marker-end:none;stroke-miterlimit:4;stroke-dasharray:none;stroke-dashoffset:0;stroke-opacity:1;visibility:visible;display:inline;overflow:visible;enable-background:accumulate"
           d="M 30.551338,427.87813 C 30.755618,548.62285 30.140218,669.38095 30.863568,790.11722 C 34.710448,898.47379 117.65087,997.44337 223.56342,1020.3268 C 321.54625,1044.1967 431.23573,1001.2998 486.54083,916.70565 C 519.66293,869.39492 531.86093,810.8455 529.12973,753.8532 C 529.12973,645.19484 529.12973,536.53648 529.12973,427.87813 C 362.93693,427.87813 196.7442,427.87813 30.551338,427.87813 z"
           id="path2302" />
      </g>
    </g>
    <path
       style="opacity:1;fill:#ffcc00;fill-opacity:1;fill-rule:evenodd;stroke:none;stroke-width:1;stroke-linecap:round;stroke-linejoin:round;stroke-miterlimit:4;stroke-dasharray:none;stroke-dashoffset:0;stroke-opacity:1"
       d="M 377.29464,21.848794 C 371.42321,21.848794 366.66964,26.63361 366.66964,32.505044 C 366.66964,36.501299 368.87708,39.968644 372.13839,41.786294 C 345.42647,60.910362 315.25434,59.302883 285.07589,57.630044 C 285.20165,56.976348 285.26339,56.289008 285.26339,55.598794 C 285.26339,49.727359 280.50983,44.973792 274.63839,44.973794 C 268.76696,44.973794 264.0134,49.727361 264.01339,55.598794 C 264.01339,61.470229 268.76697,66.255044 274.63839,66.255044 C 277.83721,66.255044 280.71921,64.835914 282.66964,62.598794 C 323.68382,110.5619 326.72154,146.33302 345.51339,182.28629 C 340.99177,143.53316 335.67403,104.82182 302.10714,68.005044 C 332.64562,71.41093 356.65983,64.714493 376.32589,51.317544 L 376.73214,49.161294 L 377.16964,51.317544 C 396.8357,64.714493 420.84991,71.41093 451.38839,68.005044 C 417.8215,104.82182 412.50376,143.53316 407.98214,182.28629 C 426.77399,146.33302 429.81171,110.5619 470.82589,62.598794 C 472.77632,64.835914 475.65832,66.255044 478.85714,66.255044 C 484.72856,66.255044 489.48214,61.470229 489.48214,55.598794 C 489.48213,49.727361 484.72857,44.973794 478.85714,44.973794 C 472.9857,44.973792 468.23214,49.727359 468.23214,55.598794 C 468.23214,56.289008 468.29388,56.976348 468.41964,57.630044 C 438.41151,59.293442 408.3945,60.913863 381.79464,42.130044 C 385.42223,40.435383 387.95089,36.770964 387.95089,32.505044 C 387.95089,26.633609 383.16607,21.848793 377.29464,21.848794 z"
       id="path3465" />
    <path
       style="opacity:1;fill:#ffcc00;fill-opacity:1;fill-rule:evenodd;stroke:none;stroke-width:1;stroke-linecap:round;stroke-linejoin:round;stroke-miterlimit:4;stroke-dasharray:none;stroke-dashoffset:0;stroke-opacity:1"
       d="M 345.51339,315.97379 C 326.72154,351.92706 323.68382,387.69818 282.66964,435.66129 C 280.71921,433.42417 277.83721,432.00503 274.63839,432.00504 C 268.76697,432.00504 264.01339,436.78985 264.01339,442.66129 C 264.0134,448.53273 268.76696,453.28628 274.63839,453.28629 C 280.50983,453.2863 285.26339,448.53272 285.26339,442.66129 C 285.26339,441.97108 285.20165,441.28373 285.07589,440.63004 C 315.25434,438.95721 345.42647,437.34972 372.13839,456.47379 C 368.87708,458.29144 366.66964,461.75878 366.66964,465.75504 C 366.66964,471.62648 371.42321,476.41128 377.29464,476.41129 C 383.16607,476.4113 387.95089,471.62647 387.95089,465.75504 C 387.95089,461.48912 385.42223,457.8247 381.79464,456.13004 C 408.3945,437.34623 438.41151,438.96664 468.41964,440.63004 C 468.29388,441.28374 468.23214,441.97107 468.23214,442.66129 C 468.23214,448.53273 472.9857,453.28629 478.85714,453.28629 C 484.72857,453.28629 489.48213,448.53272 489.48214,442.66129 C 489.48214,436.78986 484.72856,432.00503 478.85714,432.00504 C 475.65832,432.00504 472.77632,433.42416 470.82589,435.66129 C 429.81171,387.69819 426.77399,351.92706 407.98214,315.97379 C 412.50376,354.72692 417.8215,393.43826 451.38839,430.25504 C 420.84991,426.84916 396.8357,433.54559 377.16964,446.94254 L 376.73214,449.09879 L 376.32589,446.94254 C 356.65983,433.5456 332.64562,426.84915 302.10714,430.25504 C 335.67403,393.43827 340.99177,354.72692 345.51339,315.97379 z"
       id="path2669" />
    <path
       style="opacity:1;fill:#ffcc00;fill-opacity:1;fill-rule:evenodd;stroke:none;stroke-width:1;stroke-linecap:round;stroke-linejoin:round;stroke-miterlimit:4;stroke-dasharray:none;stroke-dashoffset:0;stroke-opacity:1"
       d="M 599.95889,249.93226 C 599.95889,244.06083 595.17407,239.30726 589.30264,239.30726 C 585.30638,239.30726 581.83904,241.5147 580.02139,244.77601 C 560.89732,218.06409 562.5048,187.89196 564.17764,157.71351 C 564.83133,157.83927 565.51867,157.90101 566.20889,157.90101 C 572.08032,157.90101 576.83389,153.14745 576.83389,147.27601 C 576.83389,141.40458 572.08032,136.65102 566.20889,136.65101 C 560.33745,136.65101 555.55264,141.40459 555.55264,147.27601 C 555.55264,150.47483 556.97177,153.35683 559.20889,155.30726 C 511.24578,196.32144 475.47466,199.35916 439.52139,218.15101 C 478.27452,213.62939 516.98586,208.31165 553.80264,174.74476 C 550.39675,205.28324 557.09319,229.29745 570.49014,248.96351 L 572.64639,249.36976 L 570.49014,249.80726 C 557.09319,269.47332 550.39675,293.48753 553.80264,324.02601 C 516.98586,290.45912 478.27452,285.14138 439.52139,280.61976 C 475.47466,299.41161 511.24578,302.44933 559.20889,343.46351 C 556.97177,345.41394 555.55264,348.29594 555.55264,351.49476 C 555.55264,357.36618 560.33745,362.11976 566.20889,362.11976 C 572.08032,362.11975 576.83389,357.36619 576.83389,351.49476 C 576.83389,345.62332 572.08032,340.86976 566.20889,340.86976 C 565.51867,340.86976 564.83133,340.9315 564.17764,341.05726 C 562.51424,311.04913 560.89382,281.03212 579.67764,254.43226 C 581.3723,258.05985 585.03672,260.58851 589.30264,260.58851 C 595.17407,260.58851 599.95889,255.80369 599.95889,249.93226 z"
       id="path3469" />
    <path
       style="opacity:1;fill:#ffcc00;fill-opacity:1;fill-rule:evenodd;stroke:none;stroke-width:1;stroke-linecap:round;stroke-linejoin:round;stroke-miterlimit:4;stroke-dasharray:none;stroke-dashoffset:0;stroke-opacity:1"
       d="M 305.83389,218.15101 C 269.88062,199.35916 234.1095,196.32144 186.14639,155.30726 C 188.38351,153.35683 189.80265,150.47483 189.80264,147.27601 C 189.80264,141.40459 185.01783,136.65101 179.14639,136.65101 C 173.27495,136.65102 168.5214,141.40458 168.52139,147.27601 C 168.52138,153.14745 173.27496,157.90101 179.14639,157.90101 C 179.8366,157.90101 180.52395,157.83927 181.17764,157.71351 C 182.85047,187.89196 184.45796,218.06409 165.33389,244.77601 C 163.51624,241.5147 160.0489,239.30726 156.05264,239.30726 C 150.1812,239.30726 145.3964,244.06083 145.39639,249.93226 C 145.39638,255.80369 150.18121,260.58851 156.05264,260.58851 C 160.31856,260.58851 163.98298,258.05985 165.67764,254.43226 C 184.46145,281.03212 182.84104,311.04913 181.17764,341.05726 C 180.52394,340.9315 179.83661,340.86976 179.14639,340.86976 C 173.27495,340.86976 168.52139,345.62332 168.52139,351.49476 C 168.52139,357.36619 173.27496,362.11975 179.14639,362.11976 C 185.01782,362.11976 189.80265,357.36618 189.80264,351.49476 C 189.80264,348.29594 188.38352,345.41394 186.14639,343.46351 C 234.10949,302.44933 269.88062,299.41161 305.83389,280.61976 C 267.08076,285.14138 228.36942,290.45912 191.55264,324.02601 C 194.95852,293.48753 188.26209,269.47332 174.86514,249.80726 L 172.70889,249.36976 L 174.86514,248.96351 C 188.26208,229.29745 194.95853,205.28324 191.55264,174.74476 C 228.36941,208.31165 267.08076,213.62939 305.83389,218.15101 z"
       id="path3459" />
  </g>
</svg>
