<?xml version="1.0" encoding="utf-8"?>
<!-- Generator: Adobe Illustrator 16.0.0, SVG Export Plug-In . SVG Version: 6.00 Build 0)  -->
<!DOCTYPE svg PUBLIC "-//W3C//DTD SVG 1.1//EN" "http://www.w3.org/Graphics/SVG/1.1/DTD/svg11.dtd">
<svg version="1.1" id="Capa_1" xmlns="http://www.w3.org/2000/svg" xmlns:xlink="http://www.w3.org/1999/xlink" x="0px" y="0px"
	 width="800px" height="800px" viewBox="240 0 800 800" enable-background="new 240 0 800 800" xml:space="preserve">
<ellipse fill="#FF3000" cx="647.84" cy="395.091" rx="228.738" ry="227.988"/>
<g>
	<path fill="#2B2B2B" d="M1036.089,426.51l-47.152-74.376l27.97-83.47c3.787-11.392-0.933-23.902-11.33-29.862l-76.3-43.986
		L915.244,107.9c-1.955-11.858-11.95-20.705-23.933-21.201l-88.004-3.446l-52.801-70.464c-7.202-9.623-20.239-12.82-31.011-7.636
		L640,42.961L560.472,5.122c-10.803-5.122-23.776-1.925-31.01,7.667L476.66,83.253l-88.003,3.446
		c-11.951,0.466-21.977,9.313-23.902,21.17l-14.031,86.916l-76.3,43.985c-10.399,5.96-15.148,18.47-11.361,29.862l27.968,83.472
		l-47.121,74.405c-6.425,10.15-4.78,23.405,3.88,31.725l63.542,60.935l-7.139,87.724c-0.962,12.014,6.612,22.972,18.128,26.323
		l84.588,24.367l34.425,81.049c4.718,11.021,16.545,17.414,28.278,14.869l86.296-17.693l68.104,55.781
		c4.625,3.756,10.307,5.712,15.986,5.712s11.33-1.956,15.986-5.712l68.104-55.781l86.296,17.693
		c11.702,2.483,23.592-3.818,28.278-14.869l34.425-81.049l84.588-24.367c11.518-3.322,19.092-14.311,18.129-26.323l-7.14-87.724
		l63.542-60.935C1040.869,449.915,1042.515,436.66,1036.089,426.51z M822.431,305.106L645.773,569.766
		c-6.675,9.871-17.012,16.483-27.285,16.483c-10.243,0-21.698-5.743-28.993-13.068L459.805,441.41
		c-8.847-9.002-8.847-23.592,0-32.594l32.005-32.594c8.847-8.878,23.219-8.878,32.003,0l84.401,85.736l139.189-208.537
		c6.983-10.523,21.17-13.193,31.477-6.084l37.528,25.795C826.745,280.273,829.415,294.646,822.431,305.106z"/>
</g>
</svg>
